<mxfile host="app.diagrams.net" agent="Mozilla/5.0 (Windows NT 10.0; Win64; x64) AppleWebKit/537.36 (KHTML, like Gecko) Chrome/133.0.0.0 Safari/537.36" version="26.0.16">
  <diagram name="Pagina-1" id="EPxkRy8NKs84hebMyAFT">
    <mxGraphModel dx="2514" dy="868" grid="1" gridSize="10" guides="1" tooltips="1" connect="1" arrows="1" fold="1" page="1" pageScale="1" pageWidth="827" pageHeight="1169" math="0" shadow="0">
      <root>
        <mxCell id="0" />
        <mxCell id="1" parent="0" />
        <mxCell id="VpLjQsEVqFwzY9uR6XZ5-1" value="&lt;div style=&quot;box-sizing: border-box; width: 100%; background: rgb(228, 228, 228); padding: 2px;&quot;&gt;Dipartimenti&lt;/div&gt;&lt;table style=&quot;width:100%;font-size:1em;&quot; cellpadding=&quot;2&quot; cellspacing=&quot;0&quot;&gt;&lt;tbody&gt;&lt;tr&gt;&lt;td&gt;&lt;br&gt;&lt;/td&gt;&lt;td&gt;id_dipartimento, PK&lt;br&gt;id_corso, UNIQUE&lt;br&gt;&lt;/td&gt;&lt;/tr&gt;&lt;tr&gt;&lt;td&gt;&lt;br&gt;&lt;/td&gt;&lt;td&gt;tipologia_dipartimento&lt;br&gt;&lt;/td&gt;&lt;/tr&gt;&lt;/tbody&gt;&lt;/table&gt;" style="verticalAlign=top;align=left;overflow=fill;html=1;whiteSpace=wrap;" vertex="1" parent="1">
          <mxGeometry x="-780" y="40" width="180" height="90" as="geometry" />
        </mxCell>
        <mxCell id="VpLjQsEVqFwzY9uR6XZ5-2" value="&lt;div style=&quot;box-sizing: border-box; width: 100%; background: rgb(228, 228, 228); padding: 2px;&quot;&gt;corso_laurea&lt;/div&gt;&lt;table style=&quot;width:100%;font-size:1em;&quot; cellpadding=&quot;2&quot; cellspacing=&quot;0&quot;&gt;&lt;tbody&gt;&lt;tr&gt;&lt;td&gt;PK&lt;/td&gt;&lt;td&gt;id_corso&lt;br&gt;&lt;/td&gt;&lt;/tr&gt;&lt;tr&gt;&lt;td&gt;&lt;br&gt;&lt;/td&gt;&lt;td&gt;tipologia_corso&lt;br&gt;&lt;br&gt;&lt;/td&gt;&lt;/tr&gt;&lt;/tbody&gt;&lt;/table&gt;" style="verticalAlign=top;align=left;overflow=fill;html=1;whiteSpace=wrap;" vertex="1" parent="1">
          <mxGeometry x="-205" y="100" width="180" height="90" as="geometry" />
        </mxCell>
        <mxCell id="VpLjQsEVqFwzY9uR6XZ5-6" value="1" style="text;html=1;align=center;verticalAlign=middle;resizable=0;points=[];autosize=1;strokeColor=none;fillColor=none;" vertex="1" parent="1">
          <mxGeometry x="-570" y="40" width="30" height="30" as="geometry" />
        </mxCell>
        <mxCell id="VpLjQsEVqFwzY9uR6XZ5-8" value="N" style="text;html=1;align=center;verticalAlign=middle;resizable=0;points=[];autosize=1;strokeColor=none;fillColor=none;" vertex="1" parent="1">
          <mxGeometry x="-240" y="90" width="30" height="30" as="geometry" />
        </mxCell>
        <mxCell id="VpLjQsEVqFwzY9uR6XZ5-14" style="edgeStyle=orthogonalEdgeStyle;rounded=0;orthogonalLoop=1;jettySize=auto;html=1;entryX=1;entryY=0.5;entryDx=0;entryDy=0;" edge="1" parent="1" source="VpLjQsEVqFwzY9uR6XZ5-11" target="VpLjQsEVqFwzY9uR6XZ5-1">
          <mxGeometry relative="1" as="geometry" />
        </mxCell>
        <mxCell id="VpLjQsEVqFwzY9uR6XZ5-11" value="1:N" style="html=1;whiteSpace=wrap;aspect=fixed;shape=isoRectangle;" vertex="1" parent="1">
          <mxGeometry x="-450" y="58" width="90" height="54" as="geometry" />
        </mxCell>
        <mxCell id="VpLjQsEVqFwzY9uR6XZ5-29" style="edgeStyle=orthogonalEdgeStyle;rounded=0;orthogonalLoop=1;jettySize=auto;html=1;exitX=0;exitY=0.25;exitDx=0;exitDy=0;entryX=1;entryY=0.5;entryDx=0;entryDy=0;" edge="1" parent="1" source="VpLjQsEVqFwzY9uR6XZ5-16" target="VpLjQsEVqFwzY9uR6XZ5-27">
          <mxGeometry relative="1" as="geometry" />
        </mxCell>
        <mxCell id="VpLjQsEVqFwzY9uR6XZ5-16" value="&lt;div style=&quot;box-sizing: border-box; width: 100%; background: rgb(228, 228, 228); padding: 2px;&quot;&gt;corsi&lt;/div&gt;&lt;table style=&quot;width:100%;font-size:1em;&quot; cellpadding=&quot;2&quot; cellspacing=&quot;0&quot;&gt;&lt;tbody&gt;&lt;tr&gt;&lt;td&gt;&lt;br&gt;&lt;/td&gt;&lt;td&gt;id_tipologia_corsi, PK&lt;br&gt;id_appello&lt;br&gt;&lt;/td&gt;&lt;/tr&gt;&lt;tr&gt;&lt;td&gt;&lt;br&gt;&lt;/td&gt;&lt;td&gt;id_corso,&amp;nbsp;&lt;br&gt;tipo_corso&lt;br&gt;&lt;/td&gt;&lt;/tr&gt;&lt;/tbody&gt;&lt;/table&gt;" style="verticalAlign=top;align=left;overflow=fill;html=1;whiteSpace=wrap;" vertex="1" parent="1">
          <mxGeometry x="-200" y="360" width="180" height="90" as="geometry" />
        </mxCell>
        <mxCell id="VpLjQsEVqFwzY9uR6XZ5-20" style="edgeStyle=orthogonalEdgeStyle;rounded=0;orthogonalLoop=1;jettySize=auto;html=1;entryX=0.5;entryY=1;entryDx=0;entryDy=0;" edge="1" parent="1" source="VpLjQsEVqFwzY9uR6XZ5-17" target="VpLjQsEVqFwzY9uR6XZ5-2">
          <mxGeometry relative="1" as="geometry" />
        </mxCell>
        <mxCell id="VpLjQsEVqFwzY9uR6XZ5-17" value="1:N" style="html=1;whiteSpace=wrap;aspect=fixed;shape=isoRectangle;" vertex="1" parent="1">
          <mxGeometry x="-160" y="238" width="90" height="54" as="geometry" />
        </mxCell>
        <mxCell id="VpLjQsEVqFwzY9uR6XZ5-19" style="edgeStyle=orthogonalEdgeStyle;rounded=0;orthogonalLoop=1;jettySize=auto;html=1;entryX=0.556;entryY=0.926;entryDx=0;entryDy=0;entryPerimeter=0;" edge="1" parent="1" source="VpLjQsEVqFwzY9uR6XZ5-16" target="VpLjQsEVqFwzY9uR6XZ5-17">
          <mxGeometry relative="1" as="geometry" />
        </mxCell>
        <mxCell id="VpLjQsEVqFwzY9uR6XZ5-21" value="N" style="text;html=1;align=center;verticalAlign=middle;resizable=0;points=[];autosize=1;strokeColor=none;fillColor=none;" vertex="1" parent="1">
          <mxGeometry x="-100" y="330" width="30" height="30" as="geometry" />
        </mxCell>
        <mxCell id="VpLjQsEVqFwzY9uR6XZ5-22" value="1" style="text;html=1;align=center;verticalAlign=middle;resizable=0;points=[];autosize=1;strokeColor=none;fillColor=none;" vertex="1" parent="1">
          <mxGeometry x="-110" y="190" width="30" height="30" as="geometry" />
        </mxCell>
        <mxCell id="VpLjQsEVqFwzY9uR6XZ5-30" style="edgeStyle=orthogonalEdgeStyle;rounded=0;orthogonalLoop=1;jettySize=auto;html=1;exitX=1;exitY=0.25;exitDx=0;exitDy=0;entryX=0;entryY=0.25;entryDx=0;entryDy=0;" edge="1" parent="1" source="VpLjQsEVqFwzY9uR6XZ5-23" target="VpLjQsEVqFwzY9uR6XZ5-27">
          <mxGeometry relative="1" as="geometry" />
        </mxCell>
        <mxCell id="VpLjQsEVqFwzY9uR6XZ5-23" value="&lt;div style=&quot;box-sizing: border-box; width: 100%; background: rgb(228, 228, 228); padding: 2px;&quot;&gt;insegnante&lt;/div&gt;&lt;table style=&quot;width:100%;font-size:1em;&quot; cellpadding=&quot;2&quot; cellspacing=&quot;0&quot;&gt;&lt;tbody&gt;&lt;tr&gt;&lt;td&gt;PK&lt;/td&gt;&lt;td&gt;id_insegnante&lt;/td&gt;&lt;/tr&gt;&lt;tr&gt;&lt;td&gt;&lt;br&gt;&lt;/td&gt;&lt;td&gt;nome&lt;br&gt;cognome&lt;br&gt;materia&lt;/td&gt;&lt;/tr&gt;&lt;/tbody&gt;&lt;/table&gt;" style="verticalAlign=top;align=left;overflow=fill;html=1;whiteSpace=wrap;" vertex="1" parent="1">
          <mxGeometry x="-680" y="360" width="180" height="90" as="geometry" />
        </mxCell>
        <mxCell id="VpLjQsEVqFwzY9uR6XZ5-26" style="edgeStyle=orthogonalEdgeStyle;rounded=0;orthogonalLoop=1;jettySize=auto;html=1;entryX=1.022;entryY=0.444;entryDx=0;entryDy=0;entryPerimeter=0;" edge="1" parent="1" source="VpLjQsEVqFwzY9uR6XZ5-2" target="VpLjQsEVqFwzY9uR6XZ5-11">
          <mxGeometry relative="1" as="geometry">
            <Array as="points">
              <mxPoint x="-358" y="120" />
            </Array>
          </mxGeometry>
        </mxCell>
        <mxCell id="VpLjQsEVqFwzY9uR6XZ5-27" value="&lt;div style=&quot;box-sizing: border-box; width: 100%; background: rgb(228, 228, 228); padding: 2px;&quot;&gt;docenze&lt;/div&gt;id_insegnante&lt;div&gt;id_tipologia_corsi&lt;/div&gt;" style="verticalAlign=top;align=left;overflow=fill;html=1;whiteSpace=wrap;" vertex="1" parent="1">
          <mxGeometry x="-440" y="410" width="180" height="90" as="geometry" />
        </mxCell>
        <mxCell id="VpLjQsEVqFwzY9uR6XZ5-57" style="edgeStyle=orthogonalEdgeStyle;rounded=0;orthogonalLoop=1;jettySize=auto;html=1;exitX=0;exitY=0.25;exitDx=0;exitDy=0;entryX=1;entryY=0.5;entryDx=0;entryDy=0;" edge="1" parent="1" source="VpLjQsEVqFwzY9uR6XZ5-32" target="VpLjQsEVqFwzY9uR6XZ5-53">
          <mxGeometry relative="1" as="geometry" />
        </mxCell>
        <mxCell id="VpLjQsEVqFwzY9uR6XZ5-32" value="&lt;div style=&quot;box-sizing: border-box; width: 100%; background: rgb(228, 228, 228); padding: 2px;&quot;&gt;appelli_esame&lt;/div&gt;&lt;table style=&quot;width:100%;font-size:1em;&quot; cellpadding=&quot;2&quot; cellspacing=&quot;0&quot;&gt;&lt;tbody&gt;&lt;tr&gt;&lt;td&gt;&lt;br&gt;&lt;/td&gt;&lt;td&gt;id_appello, PK&lt;br&gt;&lt;/td&gt;&lt;/tr&gt;&lt;tr&gt;&lt;td&gt;&lt;br&gt;&lt;/td&gt;&lt;td&gt;id_corso,&amp;nbsp;&lt;br&gt;numero_appello&lt;br&gt;data_appello&lt;br&gt;vot_esame&lt;br&gt;&lt;br&gt;&lt;/td&gt;&lt;/tr&gt;&lt;/tbody&gt;&lt;/table&gt;" style="verticalAlign=top;align=left;overflow=fill;html=1;whiteSpace=wrap;" vertex="1" parent="1">
          <mxGeometry x="-215" y="690" width="180" height="100" as="geometry" />
        </mxCell>
        <mxCell id="VpLjQsEVqFwzY9uR6XZ5-37" style="edgeStyle=orthogonalEdgeStyle;rounded=0;orthogonalLoop=1;jettySize=auto;html=1;entryX=0;entryY=0.5;entryDx=0;entryDy=0;" edge="1" parent="1" source="VpLjQsEVqFwzY9uR6XZ5-33" target="VpLjQsEVqFwzY9uR6XZ5-16">
          <mxGeometry relative="1" as="geometry" />
        </mxCell>
        <mxCell id="VpLjQsEVqFwzY9uR6XZ5-33" value="1:N" style="html=1;whiteSpace=wrap;aspect=fixed;shape=isoRectangle;" vertex="1" parent="1">
          <mxGeometry x="-170" y="580" width="90" height="54" as="geometry" />
        </mxCell>
        <mxCell id="VpLjQsEVqFwzY9uR6XZ5-35" style="edgeStyle=orthogonalEdgeStyle;rounded=0;orthogonalLoop=1;jettySize=auto;html=1;exitX=0;exitY=0.25;exitDx=0;exitDy=0;entryX=0.456;entryY=0.981;entryDx=0;entryDy=0;entryPerimeter=0;" edge="1" parent="1" source="VpLjQsEVqFwzY9uR6XZ5-32" target="VpLjQsEVqFwzY9uR6XZ5-33">
          <mxGeometry relative="1" as="geometry" />
        </mxCell>
        <mxCell id="VpLjQsEVqFwzY9uR6XZ5-36" value="N" style="text;html=1;align=center;verticalAlign=middle;resizable=0;points=[];autosize=1;strokeColor=none;fillColor=none;" vertex="1" parent="1">
          <mxGeometry x="-225" y="638" width="30" height="30" as="geometry" />
        </mxCell>
        <mxCell id="VpLjQsEVqFwzY9uR6XZ5-38" value="1" style="text;html=1;align=center;verticalAlign=middle;resizable=0;points=[];autosize=1;strokeColor=none;fillColor=none;" vertex="1" parent="1">
          <mxGeometry x="-210" y="460" width="30" height="30" as="geometry" />
        </mxCell>
        <mxCell id="VpLjQsEVqFwzY9uR6XZ5-56" style="edgeStyle=orthogonalEdgeStyle;rounded=0;orthogonalLoop=1;jettySize=auto;html=1;exitX=0;exitY=0.25;exitDx=0;exitDy=0;entryX=0;entryY=0.25;entryDx=0;entryDy=0;" edge="1" parent="1" source="VpLjQsEVqFwzY9uR6XZ5-39" target="VpLjQsEVqFwzY9uR6XZ5-53">
          <mxGeometry relative="1" as="geometry" />
        </mxCell>
        <mxCell id="VpLjQsEVqFwzY9uR6XZ5-39" value="&lt;div style=&quot;box-sizing: border-box; width: 100%; background: rgb(228, 228, 228); padding: 2px;&quot;&gt;studente&lt;/div&gt;&lt;table style=&quot;width:100%;font-size:1em;&quot; cellpadding=&quot;2&quot; cellspacing=&quot;0&quot;&gt;&lt;tbody&gt;&lt;tr&gt;&lt;td&gt;PK&lt;/td&gt;&lt;td&gt;id_studente&lt;/td&gt;&lt;/tr&gt;&lt;tr&gt;&lt;td&gt;&lt;br&gt;&lt;/td&gt;&lt;td&gt;id_appello&lt;br&gt;nome&lt;br&gt;cognome&lt;br&gt;data_nascita&lt;/td&gt;&lt;/tr&gt;&lt;/tbody&gt;&lt;/table&gt;" style="verticalAlign=top;align=left;overflow=fill;html=1;whiteSpace=wrap;" vertex="1" parent="1">
          <mxGeometry x="-800" y="180" width="180" height="100" as="geometry" />
        </mxCell>
        <mxCell id="VpLjQsEVqFwzY9uR6XZ5-45" style="edgeStyle=orthogonalEdgeStyle;rounded=0;orthogonalLoop=1;jettySize=auto;html=1;entryX=1;entryY=0.25;entryDx=0;entryDy=0;" edge="1" parent="1" source="VpLjQsEVqFwzY9uR6XZ5-40" target="VpLjQsEVqFwzY9uR6XZ5-39">
          <mxGeometry relative="1" as="geometry" />
        </mxCell>
        <mxCell id="VpLjQsEVqFwzY9uR6XZ5-40" value="N:1" style="html=1;whiteSpace=wrap;aspect=fixed;shape=isoRectangle;" vertex="1" parent="1">
          <mxGeometry x="-413" y="230" width="90" height="54" as="geometry" />
        </mxCell>
        <mxCell id="VpLjQsEVqFwzY9uR6XZ5-42" style="edgeStyle=orthogonalEdgeStyle;rounded=0;orthogonalLoop=1;jettySize=auto;html=1;exitX=0;exitY=0.75;exitDx=0;exitDy=0;" edge="1" parent="1" source="VpLjQsEVqFwzY9uR6XZ5-2">
          <mxGeometry relative="1" as="geometry">
            <mxPoint x="-368" y="230" as="targetPoint" />
            <Array as="points">
              <mxPoint x="-205" y="130" />
              <mxPoint x="-368" y="130" />
            </Array>
          </mxGeometry>
        </mxCell>
        <mxCell id="VpLjQsEVqFwzY9uR6XZ5-43" value="1" style="text;html=1;align=center;verticalAlign=middle;resizable=0;points=[];autosize=1;strokeColor=none;fillColor=none;" vertex="1" parent="1">
          <mxGeometry x="-240" y="172" width="30" height="30" as="geometry" />
        </mxCell>
        <mxCell id="VpLjQsEVqFwzY9uR6XZ5-46" value="N" style="text;html=1;align=center;verticalAlign=middle;resizable=0;points=[];autosize=1;strokeColor=none;fillColor=none;" vertex="1" parent="1">
          <mxGeometry x="-570" y="172" width="30" height="30" as="geometry" />
        </mxCell>
        <mxCell id="VpLjQsEVqFwzY9uR6XZ5-53" value="&lt;div style=&quot;box-sizing: border-box; width: 100%; background: rgb(228, 228, 228); padding: 2px;&quot;&gt;iscrizione_esaame&lt;/div&gt;&lt;table style=&quot;width:100%;font-size:1em;&quot; cellpadding=&quot;2&quot; cellspacing=&quot;0&quot;&gt;&lt;tbody&gt;&lt;tr&gt;&lt;td&gt;&lt;br&gt;&lt;/td&gt;&lt;td&gt;id_studente&lt;/td&gt;&lt;/tr&gt;&lt;tr&gt;&lt;td&gt;&lt;br&gt;&lt;/td&gt;&lt;td&gt;id_appello&lt;br&gt;voto&lt;br&gt;&lt;/td&gt;&lt;/tr&gt;&lt;/tbody&gt;&lt;/table&gt;" style="verticalAlign=top;align=left;overflow=fill;html=1;whiteSpace=wrap;" vertex="1" parent="1">
          <mxGeometry x="-790" y="600" width="180" height="90" as="geometry" />
        </mxCell>
      </root>
    </mxGraphModel>
  </diagram>
</mxfile>
